<?xml version="1.0" encoding="UTF-8"?>
<!DOCTYPE svg PUBLIC "-//W3C//DTD SVG 1.1//EN" "http://www.w3.org/Graphics/SVG/1.1/DTD/svg11.dtd">
<svg xmlns="http://www.w3.org/2000/svg" version="1.1" width="512px" height="512px" style="shape-rendering:geometricPrecision; text-rendering:geometricPrecision; image-rendering:optimizeQuality; fill-rule:evenodd; clip-rule:evenodd" xmlns:xlink="http://www.w3.org/1999/xlink">
<g><path style="opacity:0.022" fill="#e5e6e5" d="M 167.5,98.5 C 169.337,98.6395 169.67,99.3061 168.5,100.5C 167.702,100.043 167.369,99.3764 167.5,98.5 Z"/></g>
<g><path style="opacity:0.776" fill="#d5d7ee" d="M 178.5,98.5 C 177.599,100.727 175.933,101.727 173.5,101.5C 174.659,99.7497 176.326,98.7497 178.5,98.5 Z"/></g>
<g><path style="opacity:0.988" fill="#fefefe" d="M 178.5,98.5 C 178.833,98.5 179.167,98.5 179.5,98.5C 181.969,99.3171 184.635,99.8171 187.5,100C 189.734,101.75 192.068,103.25 194.5,104.5C 194.5,104.833 194.5,105.167 194.5,105.5C 195.536,107.391 195.536,109.224 194.5,111C 197.301,114.136 199.968,117.303 202.5,120.5C 203.632,124.562 204.965,128.562 206.5,132.5C 206.337,134.857 206.503,137.19 207,139.5C 208.889,141.483 210.222,143.816 211,146.5C 213.54,156.454 215.874,166.454 218,176.5C 219.232,180.061 220.732,183.394 222.5,186.5C 223.753,192.443 224.92,198.443 226,204.5C 226.333,204.167 226.667,203.833 227,203.5C 228.543,209.045 230.377,214.378 232.5,219.5C 237.063,231.121 240.563,243.121 243,255.5C 243.876,257.758 245.043,259.758 246.5,261.5C 246.676,264.727 247.343,267.727 248.5,270.5C 249.024,274.005 250.024,277.339 251.5,280.5C 251.694,282.912 253.027,283.912 255.5,283.5C 258.714,273.63 261.381,263.63 263.5,253.5C 264.5,249.5 265.5,245.5 266.5,241.5C 267.75,241.423 268.583,240.756 269,239.5C 270.821,232.874 272.321,226.208 273.5,219.5C 282.452,191.247 292.286,163.247 303,135.5C 303.495,133.527 303.662,131.527 303.5,129.5C 304.308,126.55 305.642,123.883 307.5,121.5C 309.008,119.819 310.008,117.819 310.5,115.5C 310.5,115.167 310.5,114.833 310.5,114.5C 311.906,114.027 312.573,113.027 312.5,111.5C 312.833,110.833 313.167,110.167 313.5,109.5C 315.104,108.713 315.771,107.38 315.5,105.5C 315.833,104.5 316.5,103.833 317.5,103.5C 319.544,102.969 321.211,101.802 322.5,100C 325.695,99.8195 328.695,99.3195 331.5,98.5C 333.308,98.4914 334.975,98.9914 336.5,100C 339.266,101.371 341.599,103.204 343.5,105.5C 344.899,106.89 346.566,107.89 348.5,108.5C 370.311,126.001 385.978,148.001 395.5,174.5C 394.892,176.684 395.559,178.684 397.5,180.5C 399.737,184.534 401.404,188.868 402.5,193.5C 401.516,195.598 401.849,197.598 403.5,199.5C 404.11,200.391 404.443,201.391 404.5,202.5C 404.025,205.082 404.692,207.082 406.5,208.5C 407.15,210.435 407.483,212.435 407.5,214.5C 406.243,215.623 406.576,216.289 408.5,216.5C 413.789,244.505 413.789,272.505 408.5,300.5C 405.427,303.715 404.094,307.715 404.5,312.5C 404.167,314.5 403.833,316.5 403.5,318.5C 401.259,319.3 400.259,320.966 400.5,323.5C 399.759,326.634 398.759,329.634 397.5,332.5C 395.204,333.733 393.87,335.733 393.5,338.5C 392.504,338.414 391.671,338.748 391,339.5C 389.864,342.096 389.031,344.763 388.5,347.5C 385.498,352.487 382.164,357.153 378.5,361.5C 376.251,362.08 374.585,363.413 373.5,365.5C 373.5,366.167 373.167,366.5 372.5,366.5C 370.5,367.833 368.833,369.5 367.5,371.5C 367.5,372.167 367.167,372.5 366.5,372.5C 365.094,372.973 364.427,373.973 364.5,375.5C 363.395,376.6 362.062,377.267 360.5,377.5C 359.5,377.833 358.833,378.5 358.5,379.5C 356.23,381.975 353.563,383.975 350.5,385.5C 347.674,385.998 345.34,387.331 343.5,389.5C 341.409,389.318 339.409,389.652 337.5,390.5C 335.88,392.958 333.88,394.958 331.5,396.5C 330.609,397.11 329.609,397.443 328.5,397.5C 324.111,398.403 320.111,400.069 316.5,402.5C 315.791,403.404 314.791,403.737 313.5,403.5C 310.26,403.768 307.094,404.434 304,405.5C 302.97,405.836 302.47,406.503 302.5,407.5C 302.167,407.5 301.833,407.5 301.5,407.5C 300.377,406.243 299.711,406.576 299.5,408.5C 294.833,409.167 290.167,409.833 285.5,410.5C 284.903,409.861 284.07,409.528 283,409.5C 281.624,409.684 280.791,410.351 280.5,411.5C 280.167,411.5 279.833,411.5 279.5,411.5C 267.686,411.264 255.686,411.264 243.5,411.5C 241.901,411.232 240.568,411.566 239.5,412.5C 229.723,411.926 220.057,410.593 210.5,408.5C 210.423,407.25 209.756,406.417 208.5,406C 206.527,405.505 204.527,405.338 202.5,405.5C 202.167,405.5 201.833,405.5 201.5,405.5C 199.91,403.179 197.577,402.179 194.5,402.5C 190.889,400.069 186.889,398.403 182.5,397.5C 180.518,397.005 178.518,396.505 176.5,396C 173.108,393.306 169.441,391.14 165.5,389.5C 164.735,387.071 163.069,385.738 160.5,385.5C 155.241,382.248 150.241,378.582 145.5,374.5C 142.833,369.833 139.167,366.167 134.5,363.5C 129.338,358.019 125.005,352.019 121.5,345.5C 121.446,343.368 120.446,342.035 118.5,341.5C 108.922,324.768 102.922,306.768 100.5,287.5C 101.885,286.053 101.552,285.053 99.5,284.5C 99.5,269.5 99.5,254.5 99.5,239.5C 100.649,239.209 101.316,238.376 101.5,237C 101.472,235.93 101.139,235.097 100.5,234.5C 100.401,231.763 100.735,229.096 101.5,226.5C 102.693,226.03 103.36,225.03 103.5,223.5C 104.162,220.532 104.495,217.532 104.5,214.5C 104.54,211.012 105.207,207.679 106.5,204.5C 108.223,202.22 108.889,199.553 108.5,196.5C 108.5,196.167 108.5,195.833 108.5,195.5C 110.256,194.448 110.923,192.781 110.5,190.5C 112.483,182.2 115.317,174.2 119,166.5C 120.357,163.102 122.19,160.102 124.5,157.5C 125.674,156.486 126.34,155.153 126.5,153.5C 126.5,153.167 126.5,152.833 126.5,152.5C 128.876,151.794 130.21,150.127 130.5,147.5C 130.5,147.167 130.5,146.833 130.5,146.5C 132.104,145.713 132.771,144.38 132.5,142.5C 134.505,139.649 136.338,136.649 138,133.5C 139.307,131.808 140.807,130.475 142.5,129.5C 144.633,127.909 146.299,125.909 147.5,123.5C 149.146,120.19 151.48,117.523 154.5,115.5C 156.749,114.92 158.415,113.587 159.5,111.5C 163.26,106.911 167.927,103.578 173.5,101.5C 175.933,101.727 177.599,100.727 178.5,98.5 Z M 177.5,206.5 C 196.358,205.177 209.525,213.177 217,230.5C 221.023,252.452 212.523,266.952 191.5,274C 167.272,276.112 153.272,265.112 149.5,241C 150.993,223.017 160.327,211.517 177.5,206.5 Z M 317.5,207.5 C 336.502,206.336 349.335,214.669 356,232.5C 358.874,246.569 355.041,258.402 344.5,268C 325.753,279.905 309.253,277.405 295,260.5C 284.784,241.298 288.284,225.132 305.5,212C 309.571,210.37 313.571,208.87 317.5,207.5 Z M 216.5,305.5 C 225.354,304.964 233.688,306.797 241.5,311C 252.708,313.831 263.375,312.498 273.5,307C 293.019,303.866 302.519,312.033 302,331.5C 299.987,338.181 295.82,343.014 289.5,346C 262.846,357.122 236.846,355.789 211.5,342C 198.191,330.712 198.191,319.379 211.5,308C 213.491,307.626 215.158,306.793 216.5,305.5 Z"/></g>
<g><path style="opacity:1" fill="#e4e5f9" d="M 179.5,98.5 C 186.171,96.9482 191.171,98.9482 194.5,104.5C 192.068,103.25 189.734,101.75 187.5,100C 184.635,99.8171 181.969,99.3171 179.5,98.5 Z"/></g>
<g><path style="opacity:1" fill="#eae8f8" d="M 331.5,98.5 C 328.695,99.3195 325.695,99.8195 322.5,100C 321.211,101.802 319.544,102.969 317.5,103.5C 318.614,102.115 319.614,100.615 320.5,99C 324.152,98.5014 327.818,98.3347 331.5,98.5 Z"/></g>
<g><path style="opacity:0.012" fill="#e5e6e5" d="M 205.5,106.5 C 207.337,106.639 207.67,107.306 206.5,108.5C 205.702,108.043 205.369,107.376 205.5,106.5 Z"/></g>
<g><path style="opacity:0.333" fill="#dad7ef" d="M 315.5,105.5 C 315.771,107.38 315.104,108.713 313.5,109.5C 313.229,107.62 313.896,106.287 315.5,105.5 Z"/></g>
<g><path style="opacity:0.776" fill="#e3e1f3" d="M 343.5,105.5 C 346.034,105.259 347.7,106.259 348.5,108.5C 346.566,107.89 344.899,106.89 343.5,105.5 Z"/></g>
<g><path style="opacity:0.024" fill="#e5e6e5" d="M 217.5,112.5 C 217.897,111.475 218.563,111.308 219.5,112C 218.906,112.464 218.239,112.631 217.5,112.5 Z"/></g>
<g><path style="opacity:0.776" fill="#e6e7fb" d="M 159.5,111.5 C 158.415,113.587 156.749,114.92 154.5,115.5C 155.585,113.413 157.251,112.08 159.5,111.5 Z"/></g>
<g><path style="opacity:0.667" fill="#dbd8f1" d="M 312.5,111.5 C 312.573,113.027 311.906,114.027 310.5,114.5C 310.427,112.973 311.094,111.973 312.5,111.5 Z"/></g>
<g><path style="opacity:0.075" fill="#e5e6e5" d="M 233.5,115.5 C 234.833,116.167 234.833,116.167 233.5,115.5 Z"/></g>
<g><path style="opacity:0.557" fill="#e1dfef" d="M 310.5,115.5 C 310.008,117.819 309.008,119.819 307.5,121.5C 307.025,118.687 308.025,116.687 310.5,115.5 Z"/></g>
<g><path style="opacity:0.557" fill="#e4e6f5" d="M 194.5,105.5 C 197.892,109.95 200.559,114.95 202.5,120.5C 199.968,117.303 197.301,114.136 194.5,111C 195.536,109.224 195.536,107.391 194.5,105.5 Z"/></g>
<g><path style="opacity:0.989" fill="#ebebeb" d="M 294.5,129.5 C 292.956,129.297 291.622,128.63 290.5,127.5C 288.694,128.859 287.194,128.525 286,126.5C 285,127.167 284,127.833 283,128.5C 280.469,139.095 276.969,149.262 272.5,159C 272.096,161.737 272.096,164.57 272.5,167.5C 271.353,169.806 270.02,171.973 268.5,174C 268.645,175.226 268.978,176.393 269.5,177.5C 267.124,181.451 265.957,185.784 266,190.5C 264.622,192.213 262.955,193.547 261,194.5C 255.944,212.632 250.277,230.632 244,248.5C 245.027,252.739 245.861,257.072 246.5,261.5C 245.043,259.758 243.876,257.758 243,255.5C 240.563,243.121 237.063,231.121 232.5,219.5C 229.97,208.244 226.637,197.244 222.5,186.5C 220.732,183.394 219.232,180.061 218,176.5C 215.874,166.454 213.54,156.454 211,146.5C 210.222,143.816 208.889,141.483 207,139.5C 206.503,137.19 206.337,134.857 206.5,132.5C 234.574,115.817 263.574,114.15 293.5,127.5C 293.863,128.183 294.196,128.85 294.5,129.5 Z"/></g>
<g><path style="opacity:1" fill="#e5e5e5" d="M 294.5,129.5 C 288.984,149.552 283.151,169.552 277,189.5C 269.074,210.944 261.741,232.611 255,254.5C 250.883,259.064 248.716,264.397 248.5,270.5C 247.343,267.727 246.676,264.727 246.5,261.5C 245.861,257.072 245.027,252.739 244,248.5C 250.277,230.632 255.944,212.632 261,194.5C 262.955,193.547 264.622,192.213 266,190.5C 265.957,185.784 267.124,181.451 269.5,177.5C 268.978,176.393 268.645,175.226 268.5,174C 270.02,171.973 271.353,169.806 272.5,167.5C 272.096,164.57 272.096,161.737 272.5,159C 276.969,149.262 280.469,139.095 283,128.5C 284,127.833 285,127.167 286,126.5C 287.194,128.525 288.694,128.859 290.5,127.5C 291.622,128.63 292.956,129.297 294.5,129.5 Z"/></g>
<g><path style="opacity:1" fill="#dadbf0" d="M 147.5,123.5 C 146.299,125.909 144.633,127.909 142.5,129.5C 142.772,126.268 144.438,124.268 147.5,123.5 Z"/></g>
<g><path style="opacity:0.008" fill="#e5e6e5" d="M 302.5,129.5 C 301.833,128.167 301.833,128.167 302.5,129.5 Z"/></g>
<g><path style="opacity:0.998" fill="#dfdfde" d="M 294.5,129.5 C 297.157,129.162 299.49,129.829 301.5,131.5C 302.298,131.043 302.631,130.376 302.5,129.5C 302.833,129.5 303.167,129.5 303.5,129.5C 303.662,131.527 303.495,133.527 303,135.5C 292.286,163.247 282.452,191.247 273.5,219.5C 270.87,226.669 268.537,234.002 266.5,241.5C 265.5,245.5 264.5,249.5 263.5,253.5C 262.625,255.568 261.459,257.568 260,259.5C 258.54,267.047 256.373,274.381 253.5,281.5C 252.817,281.137 252.15,280.804 251.5,280.5C 250.024,277.339 249.024,274.005 248.5,270.5C 248.716,264.397 250.883,259.064 255,254.5C 261.741,232.611 269.074,210.944 277,189.5C 283.151,169.552 288.984,149.552 294.5,129.5 Z"/></g>
<g><path style="opacity:0.776" fill="#d7d8f0" d="M 132.5,142.5 C 132.771,144.38 132.104,145.713 130.5,146.5C 130.229,144.62 130.896,143.287 132.5,142.5 Z"/></g>
<g><path style="opacity:1" fill="#e6e5f5" d="M 130.5,147.5 C 130.21,150.127 128.876,151.794 126.5,152.5C 127.145,150.174 128.478,148.507 130.5,147.5 Z"/></g>
<g><path style="opacity:1" fill="#d5d6ed" d="M 126.5,153.5 C 126.34,155.153 125.674,156.486 124.5,157.5C 124.157,155.517 124.824,154.183 126.5,153.5 Z"/></g>
<g><path style="opacity:1" fill="#e5e3f5" d="M 395.5,174.5 C 397.074,176.102 397.741,178.102 397.5,180.5C 395.559,178.684 394.892,176.684 395.5,174.5 Z"/></g>
<g><path style="opacity:1" fill="#dcddee" d="M 110.5,190.5 C 110.923,192.781 110.256,194.448 108.5,195.5C 108.402,193.447 109.069,191.78 110.5,190.5 Z"/></g>
<g><path style="opacity:0.333" fill="#e4e3f4" d="M 402.5,193.5 C 403.461,195.265 403.795,197.265 403.5,199.5C 401.849,197.598 401.516,195.598 402.5,193.5 Z"/></g>
<g><path style="opacity:1" fill="#f7f9ed" d="M 222.5,186.5 C 226.637,197.244 229.97,208.244 232.5,219.5C 230.377,214.378 228.543,209.045 227,203.5C 226.667,203.833 226.333,204.167 226,204.5C 224.92,198.443 223.753,192.443 222.5,186.5 Z"/></g>
<g><path style="opacity:1" fill="#e5e6f9" d="M 108.5,196.5 C 108.889,199.553 108.223,202.22 106.5,204.5C 106.111,201.447 106.777,198.78 108.5,196.5 Z"/></g>
<g><path style="opacity:0.667" fill="#e3e3f2" d="M 404.5,202.5 C 405.458,204.302 406.125,206.302 406.5,208.5C 404.692,207.082 404.025,205.082 404.5,202.5 Z"/></g>
<g><path style="opacity:0.333" fill="#dbdbf3" d="M 407.5,214.5 C 408.338,214.842 408.672,215.508 408.5,216.5C 406.576,216.289 406.243,215.623 407.5,214.5 Z"/></g>
<g><path style="opacity:1" fill="#e5e9f6" d="M 104.5,214.5 C 104.495,217.532 104.162,220.532 103.5,223.5C 103.36,225.03 102.693,226.03 101.5,226.5C 101.898,222.239 102.898,218.239 104.5,214.5 Z"/></g>
<g><path style="opacity:1" fill="#f3f6eb" d="M 273.5,219.5 C 272.321,226.208 270.821,232.874 269,239.5C 268.583,240.756 267.75,241.423 266.5,241.5C 268.537,234.002 270.87,226.669 273.5,219.5 Z"/></g>
<g><path style="opacity:1" fill="#e0dff6" d="M 100.5,234.5 C 101.139,235.097 101.472,235.93 101.5,237C 101.316,238.376 100.649,239.209 99.5,239.5C 99.2155,237.585 99.5489,235.919 100.5,234.5 Z"/></g>
<g><path style="opacity:1" fill="#f3f5e9" d="M 263.5,253.5 C 261.381,263.63 258.714,273.63 255.5,283.5C 253.027,283.912 251.694,282.912 251.5,280.5C 252.15,280.804 252.817,281.137 253.5,281.5C 256.373,274.381 258.54,267.047 260,259.5C 261.459,257.568 262.625,255.568 263.5,253.5 Z"/></g>
<g><path style="opacity:1" fill="#ced1ee" d="M 99.5,284.5 C 101.552,285.053 101.885,286.053 100.5,287.5C 99.596,286.791 99.2627,285.791 99.5,284.5 Z"/></g>
<g><path style="opacity:1" fill="#e3e5f5" d="M 408.5,300.5 C 407.738,304.785 406.405,308.785 404.5,312.5C 404.094,307.715 405.427,303.715 408.5,300.5 Z"/></g>
<g><path style="opacity:0.776" fill="#d2d3f1" d="M 403.5,318.5 C 403.25,320.674 402.25,322.341 400.5,323.5C 400.259,320.966 401.259,319.3 403.5,318.5 Z"/></g>
<g><path style="opacity:0.443" fill="#d6d9f3" d="M 397.5,332.5 C 396.66,334.853 395.326,336.853 393.5,338.5C 393.87,335.733 395.204,333.733 397.5,332.5 Z"/></g>
<g><path style="opacity:1" fill="#ced1ec" d="M 118.5,341.5 C 120.446,342.035 121.446,343.368 121.5,345.5C 120.026,344.564 119.026,343.23 118.5,341.5 Z"/></g>
<g><path style="opacity:0.333" fill="#e2e6f8" d="M 393.5,338.5 C 392.069,341.701 390.403,344.701 388.5,347.5C 389.031,344.763 389.864,342.096 391,339.5C 391.671,338.748 392.504,338.414 393.5,338.5 Z"/></g>
<g><path style="opacity:0.224" fill="#ccd1ea" d="M 378.5,361.5 C 377.415,363.587 375.749,364.92 373.5,365.5C 374.585,363.413 376.251,362.08 378.5,361.5 Z"/></g>
<g><path style="opacity:0.333" fill="#cacfea" d="M 134.5,363.5 C 139.167,366.167 142.833,369.833 145.5,374.5C 141.5,371.167 137.833,367.5 134.5,363.5 Z"/></g>
<g><path style="opacity:0.224" fill="#dce0f9" d="M 372.5,366.5 C 371.833,369.167 370.167,370.833 367.5,371.5C 368.833,369.5 370.5,367.833 372.5,366.5 Z"/></g>
<g><path style="opacity:0.224" fill="#c1c7e4" d="M 366.5,372.5 C 366.573,374.027 365.906,375.027 364.5,375.5C 364.427,373.973 365.094,372.973 366.5,372.5 Z"/></g>
<g><path style="opacity:0.333" fill="#c1c6e5" d="M 360.5,377.5 C 360.5,378.833 359.833,379.5 358.5,379.5C 358.833,378.5 359.5,377.833 360.5,377.5 Z"/></g>
<g><path style="opacity:0.776" fill="#ced5e9" d="M 160.5,385.5 C 163.069,385.738 164.735,387.071 165.5,389.5C 163.246,388.876 161.579,387.543 160.5,385.5 Z"/></g>
<g><path style="opacity:0.333" fill="#e0e3f8" d="M 350.5,385.5 C 348.919,388.068 346.586,389.401 343.5,389.5C 345.34,387.331 347.674,385.998 350.5,385.5 Z"/></g>
<g><path style="opacity:1" fill="#dfe3f3" d="M 343.5,389.5 C 340.121,392.858 336.121,395.191 331.5,396.5C 333.88,394.958 335.88,392.958 337.5,390.5C 339.409,389.652 341.409,389.318 343.5,389.5 Z"/></g>
<g><path style="opacity:0.667" fill="#dfe4f5" d="M 182.5,397.5 C 186.889,398.403 190.889,400.069 194.5,402.5C 189.931,401.983 185.931,400.317 182.5,397.5 Z"/></g>
<g><path style="opacity:0.557" fill="#dae2f5" d="M 328.5,397.5 C 325.001,400.246 321.001,401.913 316.5,402.5C 320.111,400.069 324.111,398.403 328.5,397.5 Z"/></g>
<g><path style="opacity:1" fill="#dde0f2" d="M 194.5,402.5 C 197.577,402.179 199.91,403.179 201.5,405.5C 198.982,404.736 196.649,403.736 194.5,402.5 Z"/></g>
<g><path style="opacity:0.333" fill="#d8dcee" d="M 313.5,403.5 C 310.203,405.601 306.537,406.935 302.5,407.5C 302.47,406.503 302.97,405.836 304,405.5C 307.094,404.434 310.26,403.768 313.5,403.5 Z"/></g>
<g><path style="opacity:0.333" fill="#d7dbf1" d="M 202.5,405.5 C 204.527,405.338 206.527,405.505 208.5,406C 209.756,406.417 210.423,407.25 210.5,408.5C 207.514,408.097 204.848,407.097 202.5,405.5 Z"/></g>
<g><path style="opacity:0.333" fill="#d8def7" d="M 301.5,407.5 C 301.158,408.338 300.492,408.672 299.5,408.5C 299.711,406.576 300.377,406.243 301.5,407.5 Z"/></g>
<g><path style="opacity:1" fill="#e3e6f7" d="M 285.5,410.5 C 284.081,411.451 282.415,411.784 280.5,411.5C 280.791,410.351 281.624,409.684 283,409.5C 284.07,409.528 284.903,409.861 285.5,410.5 Z"/></g>
<g><path style="opacity:0.6" fill="#e9ecfb" d="M 279.5,411.5 C 277.369,412.314 275.036,412.814 272.5,413C 262.839,413.5 253.172,413.666 243.5,413.5C 243.5,412.833 243.5,412.167 243.5,411.5C 255.686,411.264 267.686,411.264 279.5,411.5 Z"/></g>
<g><path style="opacity:0.4" fill="#c9cde5" d="M 243.5,411.5 C 243.5,412.167 243.5,412.833 243.5,413.5C 241.901,413.768 240.568,413.434 239.5,412.5C 240.568,411.566 241.901,411.232 243.5,411.5 Z"/></g>
</svg>
